<svg xmlns="http://www.w3.org/2000/svg" xmlns:xlink="http://www.w3.org/1999/xlink" width="200" height="200" viewBox="0 0 200 200"><defs><style>.a{fill:none;}.b{clip-path:url(#d);}.c{fill:#96c6db;stroke:#50d6eb;font-size:20px;font-family:MicrosoftPhagsPa, Microsoft PhagsPa;}.d{fill:#aae9e1;}.e{clip-path:url(#a);}.f,.g{stroke:none;}.g{fill:#707070;}.h{fill:#fff;}</style><clipPath id="a"><rect class="a" width="198" height="47"/></clipPath><clipPath id="d"><rect width="200" height="200"/></clipPath></defs><g id="c" class="b"><rect class="h" width="200" height="200"/><text class="c" transform="translate(100 91)"><tspan x="-63.945" y="0">SALON JIMMY</tspan><tspan x="-64.951" y="26">PURWOKERTO</tspan></text><g class="d" transform="translate(-1.101 150.69)"><path class="f" d="M 66.02960205078125 46.5 L 0.9703947901725769 46.5 L 33.5 0.8614494204521179 L 66.02960205078125 46.5 Z"/><path class="g" d="M 33.5 1.722900390625 L 1.940788269042969 46 L 65.05921173095703 46 L 33.5 1.722900390625 M 33.5 0 L 67 47 L 0 47 L 33.5 0 Z"/></g><g class="d" transform="translate(62.899 150.69)"><path class="f" d="M 66.02960205078125 46.5 L 0.9703947901725769 46.5 L 33.5 0.8614494204521179 L 66.02960205078125 46.5 Z"/><path class="g" d="M 33.5 1.722900390625 L 1.940788269042969 46 L 65.05921173095703 46 L 33.5 1.722900390625 M 33.5 0 L 67 47 L 0 47 L 33.5 0 Z"/></g><g class="d" transform="translate(129.899 150.69)"><path class="f" d="M 66.02960205078125 46.5 L 0.9703947901725769 46.5 L 33.5 0.8614494204521179 L 66.02960205078125 46.5 Z"/><path class="g" d="M 33.5 1.722900390625 L 1.940788269042969 46 L 65.05921173095703 46 L 33.5 1.722900390625 M 33.5 0 L 67 47 L 0 47 L 33.5 0 Z"/></g><g class="e" transform="translate(-1.101 150.69)"><g transform="translate(1.101 -150.69)"><g class="d" transform="translate(-1.101 150.69)"><path class="f" d="M 66.02960205078125 46.5 L 0.9703947901725769 46.5 L 33.5 0.8614494204521179 L 66.02960205078125 46.5 Z"/><path class="g" d="M 33.5 1.722900390625 L 1.940788269042969 46 L 65.05921173095703 46 L 33.5 1.722900390625 M 33.5 0 L 67 47 L 0 47 L 33.5 0 Z"/></g><g class="d" transform="translate(62.899 150.69)"><path class="f" d="M 66.02960205078125 46.5 L 0.9703947901725769 46.5 L 33.5 0.8614494204521179 L 66.02960205078125 46.5 Z"/><path class="g" d="M 33.5 1.722900390625 L 1.940788269042969 46 L 65.05921173095703 46 L 33.5 1.722900390625 M 33.5 0 L 67 47 L 0 47 L 33.5 0 Z"/></g><g class="d" transform="translate(129.899 150.69)"><path class="f" d="M 66.02960205078125 46.5 L 0.9703947901725769 46.5 L 33.5 0.8614494204521179 L 66.02960205078125 46.5 Z"/><path class="g" d="M 33.5 1.722900390625 L 1.940788269042969 46 L 65.05921173095703 46 L 33.5 1.722900390625 M 33.5 0 L 67 47 L 0 47 L 33.5 0 Z"/></g></g></g><g class="e" transform="translate(198.899 46.69) rotate(180)"><g transform="translate(1.101 -150.69)"><g class="d" transform="translate(-1.101 150.69)"><path class="f" d="M 66.02960205078125 46.5 L 0.9703947901725769 46.5 L 33.5 0.8614494204521179 L 66.02960205078125 46.5 Z"/><path class="g" d="M 33.5 1.722900390625 L 1.940788269042969 46 L 65.05921173095703 46 L 33.5 1.722900390625 M 33.5 0 L 67 47 L 0 47 L 33.5 0 Z"/></g><g class="d" transform="translate(62.899 150.69)"><path class="f" d="M 66.02960205078125 46.5 L 0.9703947901725769 46.5 L 33.5 0.8614494204521179 L 66.02960205078125 46.5 Z"/><path class="g" d="M 33.5 1.722900390625 L 1.940788269042969 46 L 65.05921173095703 46 L 33.5 1.722900390625 M 33.5 0 L 67 47 L 0 47 L 33.5 0 Z"/></g><g class="d" transform="translate(129.899 150.69)"><path class="f" d="M 66.02960205078125 46.5 L 0.9703947901725769 46.5 L 33.5 0.8614494204521179 L 66.02960205078125 46.5 Z"/><path class="g" d="M 33.5 1.722900390625 L 1.940788269042969 46 L 65.05921173095703 46 L 33.5 1.722900390625 M 33.5 0 L 67 47 L 0 47 L 33.5 0 Z"/></g></g></g></g></svg>